# This file uses centimeters as units for non-parametric coordinates.

mtllib bottle_crash.mtl
g default
v 16.099806 14.918822 43.901792
v 11.141414 21.001285 43.901792
v 3.976326 24.376799 43.901792
v -3.976320 24.376799 43.901792
v -11.141406 21.001289 43.901792
v -16.099802 14.918827 43.901792
v -17.869431 7.334122 43.901792
v -16.099804 -0.250587 43.901792
v -11.141411 -6.333051 43.901792
v -3.976325 -9.708566 43.901792
v 3.976321 -9.708566 43.901792
v 11.141409 -6.333054 43.901792
v 16.099804 -0.250590 43.901792
v 17.869437 7.334118 43.901792
v 15.749809 14.918822 53.448925
v 10.899207 21.001285 53.448925
v 3.889884 24.376799 53.448925
v -3.889878 24.376799 53.448925
v -10.899201 21.001289 53.448925
v -15.749805 14.918827 53.448925
v -17.480967 7.334122 53.448925
v -15.749809 -0.250587 53.448925
v -10.899206 -6.333051 53.448925
v -3.889883 -9.708566 53.448925
v 3.889880 -9.708566 53.448925
v 10.899204 -6.333054 53.448925
v 15.749809 -0.250590 53.448925
v 17.480968 7.334118 53.448925
v 0.000000 7.334118 53.448925
v 11.141414 21.001289 18.501459
v -11.141414 21.001294 18.501459
v -16.099815 -0.250589 18.501455
v 3.976334 -9.708572 18.501457
v 11.141420 -6.333056 26.539296
v -3.976325 -9.708568 34.725339
v -3.976325 -9.708568 31.178766
v -11.141415 -6.333052 33.471018
v -17.869433 7.334122 31.680878
v -16.099806 14.918829 33.049576
v -3.976320 24.376803 22.663078
v 3.976326 24.376801 31.289816
v 17.869441 7.334118 34.336329
v 16.099811 -0.250592 27.626682
v -0.589144 -9.708568 34.271845
v -8.082168 -7.774281 27.075151
v -16.648349 12.567728 28.650328
v -5.886821 23.476761 22.777260
v -0.252163 24.376803 22.097796
v 8.420547 22.283107 28.504544
v 16.836516 11.761261 35.623540
v 17.114029 15.415592 43.923635
v 11.838947 21.888630 43.915775
v 11.555355 21.898183 54.548924
v 16.719828 15.426463 54.548924
v 4.224899 25.476801 43.906070
v 4.119601 25.476801 54.548924
v -4.222453 25.476801 43.901792
v -4.119595 25.476801 54.548924
v -11.837723 21.888036 43.906066
v -11.555349 21.898185 54.548924
v -17.113920 15.413549 43.915756
v -16.719824 15.426463 54.548924
v -18.998635 7.332670 43.923628
v -18.568140 7.334121 54.548924
v -17.114027 -0.747358 43.923632
v -16.719830 -0.758224 54.548924
v -11.838946 -7.220393 43.915771
v -11.555353 -7.229949 54.548924
v -4.224902 -10.808568 43.906066
v -4.119600 -10.808568 54.548924
v 4.222455 -10.808568 43.901792
v 4.119595 -10.808568 54.548924
v 11.837726 -7.219801 43.906062
v 11.555355 -7.229951 54.548924
v 17.113920 -0.745312 43.915760
v 16.719830 -0.758228 54.548924
v 18.998643 7.335573 43.923624
v 18.568140 7.334123 54.548924
v 0.000000 7.334118 54.548924
v 4.222467 -10.808572 18.501457
v 11.836190 -7.221703 26.539296
v -4.222460 -10.808570 34.725343
v -0.589144 -10.808570 34.271845
v -11.836187 -7.221697 33.471018
v -8.550967 -8.769384 27.075151
v -4.445124 -10.703671 31.178766
v -17.113220 -0.748365 18.501455
v -18.998976 7.334122 31.680878
v -17.113211 15.416605 33.049576
v -17.719580 12.817662 28.650328
v -11.836182 21.889939 18.501459
v -4.222451 25.476803 22.663078
v -6.355619 24.471862 22.777260
v 4.222459 25.476801 31.289816
v -0.252163 25.476803 22.097796
v 11.836184 21.889935 18.501457
v 8.889346 23.278210 28.504544
v 18.998985 7.334119 34.336333
v 17.907745 12.011196 35.623540
v 17.113216 -0.748367 27.626682
vt 0.622244 0.875109
vt 0.680417 0.872915
vt 0.683320 0.945808
vt 0.623263 0.947658
vt 0.738661 0.870088
vt 0.743513 0.942976
vt 0.497675 0.869123
vt 0.497675 0.940555
vt 0.560837 0.686844
vt 0.727538 0.682674
vt 0.797531 0.866567
vt 0.803494 0.939367
vt 0.092117 0.875109
vt 0.149468 0.873510
vt 0.151529 0.944251
vt 0.092891 0.946141
vt 0.206368 0.871807
vt 0.209700 0.942120
vt 0.033615 0.875328
vt 0.034124 0.947491
vt 0.263484 0.869882
vt 0.267324 0.939842
vt 0.257351 0.686138
vt 0.504772 0.008618
vt 0.528051 0.027182
vt 0.475744 0.068895
vt 0.540970 0.054009
vt 0.475744 0.001992
vt 0.540970 0.083782
vt 0.446716 0.008618
vt 0.528051 0.110608
vt 0.423437 0.027182
vt 0.504772 0.129173
vt 0.410518 0.054009
vt 0.475744 0.135798
vt 0.410518 0.083782
vt 0.446716 0.129173
vt 0.423437 0.110608
vt 0.321084 0.867698
vt 0.324471 0.937449
vt 0.378898 0.865297
vt 0.381288 0.934917
vt 0.428210 0.678327
vt 0.857172 0.862388
vt 0.863101 0.935119
vt 0.917280 0.857725
vt 0.922379 0.930419
vt 0.900897 0.666257
vt 0.977269 0.852841
vt 0.981534 0.925624
vt 0.034431 0.745367
vt 0.965971 0.721330
vt 0.851577 0.793663
vt 0.849414 0.767102
vt 0.791885 0.789064
vt 0.676575 0.782917
vt 0.620133 0.794709
vt 0.372239 0.711269
vt 0.317455 0.776333
vt 0.148682 0.803780
vt 0.092117 0.754533
vt 0.876562 0.787811
vt 0.813516 0.739435
vt 0.636856 0.761605
vt 0.387547 0.711361
vt 0.345202 0.708359
vt 0.281418 0.757620
vt 0.181276 0.812589
vt 0.206368 0.871807
vt 0.263484 0.869882
vt 0.267324 0.939842
vt 0.209700 0.942120
vt 0.321084 0.867698
vt 0.324471 0.937449
vt 0.378898 0.865297
vt 0.381288 0.934917
vt 0.497675 0.869123
vt 0.497675 0.940555
vt 0.622244 0.875109
vt 0.623263 0.947658
vt 0.680417 0.872915
vt 0.683320 0.945808
vt 0.738661 0.870088
vt 0.743513 0.942976
vt 0.797531 0.866567
vt 0.803494 0.939367
vt 0.857172 0.862388
vt 0.863101 0.935119
vt 0.917280 0.857725
vt 0.922379 0.930419
vt 0.977269 0.852841
vt 0.981534 0.925624
vt 0.033615 0.875328
vt 0.092117 0.875109
vt 0.092891 0.946141
vt 0.034124 0.947491
vt 0.149468 0.873510
vt 0.151529 0.944251
vt 0.504772 0.008618
vt 0.528051 0.027182
vt 0.475744 0.068895
vt 0.540970 0.054009
vt 0.540970 0.083782
vt 0.528051 0.110608
vt 0.504772 0.129173
vt 0.475744 0.135798
vt 0.446716 0.129173
vt 0.423437 0.110608
vt 0.410518 0.083782
vt 0.410518 0.054009
vt 0.423437 0.027182
vt 0.446716 0.008618
vt 0.475744 0.001992
vt 0.900897 0.666257
vt 0.965971 0.721330
vt 0.851577 0.793663
vt 0.876562 0.787811
vt 0.791885 0.789064
vt 0.813516 0.739435
vt 0.849414 0.767102
vt 0.727538 0.682674
vt 0.676575 0.782917
vt 0.620133 0.794709
vt 0.636856 0.761605
vt 0.497675 0.682586
vt 0.372239 0.711269
vt 0.387547 0.711361
vt 0.317455 0.776333
vt 0.345202 0.708359
vt 0.257351 0.686138
vt 0.281418 0.757620
vt 0.148682 0.803780
vt 0.181276 0.812589
vt 0.092117 0.754533
vt 0.034431 0.745367
vt 0.900897 0.666257
vt 0.965971 0.721330
vt 0.851577 0.793663
vt 0.876562 0.787811
vt 0.791885 0.789064
vt 0.813516 0.739435
vt 0.849414 0.767102
vt 0.727538 0.682674
vt 0.676575 0.782917
vt 0.620133 0.794709
vt 0.636856 0.761605
vt 0.497675 0.682586
vt 0.372239 0.711269
vt 0.387547 0.711361
vt 0.317455 0.776333
vt 0.345202 0.708359
vt 0.257351 0.686138
vt 0.281418 0.757620
vt 0.206368 0.871807
vt 0.148682 0.803780
vt 0.181276 0.812589
vt 0.092117 0.754533
vt 0.034431 0.745367
vn 0.883805 0.467534 0.017350
vn 0.603967 0.796981 0.006798
vn 0.618168 0.785880 0.016171
vn 0.898182 0.438478 0.031714
vn 0.208535 0.978014 0.001407
vn 0.219592 0.975584 0.003807
vn -0.230913 0.972974 0.001269
vn -0.219689 0.975563 0.003755
vn -0.603893 0.797046 0.005518
vn -0.618192 0.785863 0.016044
vn -0.889136 0.457466 0.012713
vn -0.898152 0.438548 0.031600
vn -0.999617 -0.023057 0.015315
vn -0.999253 0.000065 0.038640
vn -0.899656 -0.436444 0.011610
vn -0.898182 -0.438478 0.031714
vn -0.629905 -0.776646 0.006427
vn -0.618168 -0.785880 0.016171
vn -0.219915 -0.975518 0.001622
vn -0.219593 -0.975584 0.003807
vn 0.247449 -0.968900 0.001416
vn 0.219689 -0.975563 0.003755
vn 0.603364 -0.797445 0.005760
vn 0.618192 -0.785863 0.016043
vn 0.890289 -0.455206 0.013188
vn 0.898152 -0.438547 0.031600
vn 0.999218 -0.034140 0.019973
vn 0.999253 -0.000064 0.038641
vn 0.000000 0.000000 1.000000
vn 0.000000 0.000000 1.000000
vn 0.000000 -0.000000 1.000000
vn 0.000000 0.000000 1.000000
vn 0.000000 -0.000000 1.000000
vn 0.000000 -0.000000 1.000000
vn 0.000000 0.000000 1.000000
vn 0.000000 0.000000 1.000000
vn 0.000000 0.000000 1.000000
vn 0.000000 0.000000 1.000000
vn 0.000000 0.000000 1.000000
vn 0.000000 0.000000 1.000000
vn 0.000000 0.000000 1.000000
vn 0.000000 0.000000 1.000000
vn 0.000000 0.000000 1.000000
vn 0.358711 -0.933449 0.000021
vn 0.531997 -0.846746 0.000030
vn -0.274920 -0.961467 -0.000024
vn 0.000000 -1.000000 0.000000
vn -0.636113 -0.771596 -0.000037
vn -0.426217 -0.904621 -0.000037
vn -0.426217 -0.904621 -0.000037
vn -0.905465 -0.424421 -0.000025
vn -0.998425 -0.056108 0.000000
vn -0.881673 0.471860 0.000033
vn -0.973853 0.227178 0.000025
vn -0.527670 0.849450 0.000028
vn -0.209424 0.977825 0.000012
vn -0.426244 0.904608 0.000024
vn 0.181525 0.983386 -0.000013
vn 0.000000 1.000000 0.000000
vn 0.592581 0.805511 -0.000041
vn 0.426223 0.904618 -0.000031
vn 0.988739 -0.149649 0.000017
vn 0.973854 0.227174 -0.000023
vn 0.822472 -0.568806 0.000039
vn -0.882800 -0.469462 -0.016418
vn -0.898172 -0.438503 -0.031659
vn -0.618181 -0.785871 -0.016105
vn -0.603178 -0.797581 -0.006383
vn -0.219637 -0.975574 -0.003780
vn -0.207699 -0.978192 -0.001316
vn 0.219636 -0.975574 -0.003780
vn 0.231269 -0.972889 -0.001180
vn 0.618180 -0.785871 -0.016105
vn 0.602956 -0.797758 -0.005134
vn 0.898172 -0.438503 -0.031659
vn 0.888571 -0.458584 -0.011904
vn 0.999253 -0.000000 -0.038646
vn 0.999609 0.023998 -0.014329
vn 0.898172 0.438503 -0.031659
vn 0.899567 0.436649 -0.010826
vn 0.618181 0.785871 -0.016105
vn 0.629622 0.776878 -0.006004
vn 0.219637 0.975574 -0.003780
vn 0.220092 0.975478 -0.001520
vn -0.219636 0.975574 -0.003780
vn -0.248216 0.968704 -0.001321
vn -0.618180 0.785871 -0.016105
vn -0.602452 0.798137 -0.005370
vn -0.898172 0.438503 -0.031659
vn -0.889752 0.456277 -0.012371
vn -0.999253 0.000000 -0.038646
vn -0.999176 0.035901 -0.018920
vn 0.000000 -0.000000 -1.000000
vn 0.000000 -0.000000 -1.000000
vn 0.000000 -0.000000 -1.000000
vn 0.000000 -0.000000 -1.000000
vn 0.000000 -0.000000 -1.000000
vn 0.000000 -0.000000 -1.000000
vn 0.000000 -0.000000 -1.000000
vn 0.000000 -0.000000 -1.000000
vn 0.000000 -0.000000 -1.000000
vn 0.000000 -0.000000 -1.000000
vn 0.000000 -0.000000 -1.000000
vn 0.000000 -0.000000 -1.000000
vn 0.000000 -0.000000 -1.000000
vn 0.000000 -0.000000 -1.000000
vn 0.000000 -0.000000 -1.000000
vn -0.530184 0.847882 -0.000000
vn -0.358410 0.933564 -0.000000
vn 0.000000 1.000000 -0.000000
vn 0.275401 0.961329 -0.000000
vn 0.426180 0.904638 -0.000000
vn 0.426180 0.904638 -0.000000
vn 0.635144 0.772394 -0.000000
vn 0.905362 0.424640 -0.000000
vn 0.998448 0.055695 -0.000000
vn 0.973845 -0.227213 -0.000000
vn 0.881759 -0.471700 -0.000000
vn 0.525504 -0.850791 -0.000000
vn 0.426180 -0.904638 -0.000000
vn 0.207514 -0.978232 -0.000000
vn 0.000000 -1.000000 -0.000000
vn -0.181745 -0.983346 -0.000000
vn -0.426180 -0.904638 -0.000000
vn -0.594332 -0.804220 -0.000000
vn -0.973845 -0.227214 -0.000000
vn -0.988430 0.151679 -0.000000
vn -0.820078 0.572252 -0.000000
vn 0.634007 0.299972 -0.712778
vn 0.634007 0.299972 -0.712778
vn 0.634007 0.299972 -0.712778
vn 0.634007 0.299972 -0.712778
vn -0.128114 0.014331 -0.991656
vn -0.128114 0.014331 -0.991656
vn -0.128114 0.014331 -0.991656
vn -0.128114 0.014331 -0.991656
vn -0.953071 -0.106629 -0.283349
vn -0.953071 -0.106629 -0.283349
vn -0.953071 -0.106629 -0.283349
vn -0.953071 -0.106629 -0.283349
vn -0.747114 0.461484 -0.478386
vn -0.747114 0.461484 -0.478386
vn -0.747114 0.461484 -0.478386
vn -0.747114 0.461484 -0.478386
vn 0.606707 -0.285823 -0.741763
vn 0.606707 -0.285823 -0.741763
vn 0.606707 -0.285823 -0.741763
vn 0.606707 -0.285823 -0.741763
vn 0.945852 -0.322763 -0.034465
vn 0.945852 -0.322763 -0.034465
vn 0.945852 -0.322763 -0.034465
vn 0.945852 -0.322763 -0.034465
vn 0.554259 -0.682890 -0.475876
vn 0.554259 -0.682890 -0.475876
vn 0.554259 -0.682890 -0.475876
vn 0.554259 -0.682890 -0.475876
vn -0.193131 0.831437 -0.520973
vn -0.193131 0.831437 -0.520973
vn -0.193131 0.831437 -0.520973
vn -0.193131 0.831437 -0.520973
vn 0.292823 0.816399 -0.497743
vn 0.292823 0.816399 -0.497743
vn 0.292823 0.816399 -0.497743
vn 0.292823 0.816399 -0.497743
vn -0.054720 -0.481836 -0.874551
vn -0.054720 -0.481836 -0.874551
vn -0.054720 -0.481836 -0.874551
vn -0.054720 -0.481836 -0.874551
vn -0.550607 -0.678389 -0.486435
vn -0.550607 -0.678389 -0.486435
vn -0.550607 -0.678389 -0.486435
vn -0.550607 -0.678389 -0.486435
vn -0.110008 -0.016396 -0.993795
vn -0.048589 -0.016580 -0.998681
vn -0.048589 -0.016580 -0.998681
vn -0.110274 -0.016395 -0.993766
vn 0.499500 0.308536 -0.809509
vn 0.499500 0.308536 -0.809509
vn 0.499500 0.308536 -0.809509
vn 0.499500 0.308536 -0.809509
vn 0.899249 -0.100607 -0.425710
vn 0.899249 -0.100607 -0.425710
vn 0.899249 -0.100607 -0.425710
vn 0.899249 -0.100607 -0.425710
vn -0.145352 -0.016262 -0.989246
vn -0.145352 -0.016262 -0.989246
vn -0.812364 0.501787 -0.297111
vn -0.812364 0.501787 -0.297111
vn -0.812364 0.501787 -0.297111
vn -0.812364 0.501787 -0.297111
vn -0.460246 0.157054 -0.873789
vn -0.460247 0.157054 -0.873789
vn -0.460247 0.157054 -0.873789
vn -0.460246 0.157054 -0.873789
vn 0.602326 -0.738217 -0.303708
vn 0.602326 -0.738217 -0.303708
vn 0.602326 -0.738217 -0.303708
vn 0.602326 -0.738218 -0.303708
vn 0.089546 0.517886 -0.850750
vn -0.030146 0.265460 -0.963650
vn -0.030146 0.265460 -0.963651
vn 0.093742 0.526174 -0.845194
vn -0.309080 0.874177 -0.374545
vn -0.309080 0.874177 -0.374545
vn -0.309080 0.874177 -0.374545
vn -0.309080 0.874177 -0.374545
vn 0.144931 0.623929 -0.767924
vn 0.144931 0.623929 -0.767924
vn 0.083852 0.103313 -0.991108
vn 0.083852 0.103313 -0.991108
vn 0.083852 0.103313 -0.991108
vn 0.083852 0.103313 -0.991108
s 1
g bottle
usemtl initialShadingGroup
f 51/154/1 52/21/2 53/22/3 54/18/4
f 52/21/2 55/39/5 56/40/6 53/22/3
f 55/39/5 57/41/7 58/42/8 56/40/6
f 57/41/7 59/7/9 60/8/10 58/42/8
f 59/7/9 61/1/11 62/4/12 60/8/10
f 61/1/11 63/2/13 64/3/14 62/4/12
f 63/2/13 65/5/15 66/6/16 64/3/14
f 65/5/15 67/11/17 68/12/18 66/6/16
f 67/11/17 69/44/19 70/45/20 68/12/18
f 69/44/19 71/46/21 72/47/22 70/45/20
f 71/46/21 73/49/23 74/50/24 72/47/22
f 73/19/23 75/13/25 76/16/26 74/20/24
f 75/13/25 77/14/27 78/15/28 76/16/26
f 77/14/27 51/154/1 54/18/4 78/15/28
s 2
f 54/24/29 53/25/30 79/26/31
f 53/25/30 56/27/32 79/26/31
f 56/27/32 58/29/33 79/26/31
f 58/29/33 60/31/34 79/26/31
f 60/31/34 62/33/35 79/26/31
f 62/33/35 64/35/36 79/26/31
f 64/35/36 66/37/37 79/26/31
f 66/37/37 68/38/38 79/26/31
f 68/38/38 70/36/39 79/26/31
f 70/36/39 72/34/40 79/26/31
f 72/34/40 74/32/41 79/26/31
f 74/32/41 76/30/42 79/26/31
f 76/30/42 78/28/43 79/26/31
f 78/28/43 54/24/29 79/26/31
s 1
f 73/49/23 71/46/21 80/136/44 81/137/45
f 71/46/21 69/44/19 82/138/46 83/139/47 80/136/44
f 69/44/19 67/11/17 84/140/48 85/141/49 86/142/50 82/138/46
f 67/11/17 65/5/15 87/143/51 84/140/48
f 65/5/15 63/2/13 88/144/52 87/143/51
f 63/2/13 61/1/11 89/145/53 90/146/54 88/144/52
f 61/1/11 59/7/9 91/147/55 89/145/53
f 59/7/9 57/41/7 92/148/56 93/149/57 91/147/55
f 57/41/7 55/39/5 94/150/58 95/151/59 92/148/56
f 55/39/5 52/21/2 96/152/60 97/153/61 94/150/58
f 52/21/2 51/154/1 96/152/60
f 51/154/1 77/14/27 98/155/62 99/156/63
f 77/14/27 75/13/25 100/157/64 98/155/62
f 75/13/25 73/19/23 81/158/45 100/157/64
s 3
f 1/69/65 15/72/66 16/71/67 2/70/68
f 2/70/68 16/71/67 17/74/69 3/73/70
f 3/73/70 17/74/69 18/76/71 4/75/72
f 4/75/72 18/76/71 19/78/73 5/77/74
f 5/77/74 19/78/73 20/80/75 6/79/76
f 6/79/76 20/80/75 21/82/77 7/81/78
f 7/81/78 21/82/77 22/84/79 8/83/80
f 8/83/80 22/84/79 23/86/81 9/85/82
f 9/85/82 23/86/81 24/88/83 10/87/84
f 10/87/84 24/88/83 25/90/85 11/89/86
f 11/89/86 25/90/85 26/92/87 12/91/88
f 12/93/88 26/96/87 27/95/89 13/94/90
f 13/94/90 27/95/89 28/98/91 14/97/92
f 14/97/92 28/98/91 15/72/66 1/69/65
s 4
f 15/99/93 29/101/94 16/100/95
f 16/100/95 29/101/94 17/102/96
f 17/102/96 29/101/94 18/103/97
f 18/103/97 29/101/94 19/104/98
f 19/104/98 29/101/94 20/105/99
f 20/105/99 29/101/94 21/106/100
f 21/106/100 29/101/94 22/107/101
f 22/107/101 29/101/94 23/108/102
f 23/108/102 29/101/94 24/109/103
f 24/109/103 29/101/94 25/110/104
f 25/110/104 29/101/94 26/111/105
f 26/111/105 29/101/94 27/112/106
f 27/112/106 29/101/94 28/113/107
f 28/113/107 29/101/94 15/99/93
s 3
f 12/91/88 34/115/108 33/114/109 11/89/86
f 11/89/86 33/114/109 44/117/110 35/116/111 10/87/84
f 10/87/84 35/116/111 36/120/112 45/119/113 37/118/114 9/85/82
f 9/85/82 37/118/114 32/121/115 8/83/80
f 8/83/80 32/121/115 38/122/116 7/81/78
f 7/81/78 38/122/116 46/124/117 39/123/118 6/79/76
f 6/79/76 39/123/118 31/125/119 5/77/74
f 5/77/74 31/125/119 47/127/120 40/126/121 4/75/72
f 4/75/72 40/126/121 48/129/122 41/128/123 3/73/70
f 3/73/70 41/128/123 49/131/124 30/130/125 2/70/68
f 2/70/68 30/130/125 1/69/65
f 1/69/65 50/133/126 42/132/127 14/97/92
f 14/97/92 42/132/127 43/134/128 13/94/90
f 13/94/90 43/134/128 34/135/108 12/93/88
s off
f 33/48/129 34/52/130 81/137/131 80/136/132
f 35/53/133 44/62/134 83/139/135 82/138/136
f 44/62/137 33/48/138 80/136/139 83/139/140
f 37/55/141 45/63/142 85/141/143 84/140/144
f 45/63/145 36/54/146 86/142/147 85/141/148
f 36/54/149 35/53/150 82/138/151 86/142/152
f 32/10/153 37/55/154 84/140/155 87/143/156
f 38/56/157 32/10/158 87/143/159 88/144/160
f 39/57/161 46/64/162 90/146/163 89/145/164
f 46/64/165 38/56/166 88/144/167 90/146/168
f 31/9/169 39/57/170 89/145/171 91/147/172
s 5
f 40/58/173 47/65/174 93/149/175 92/148/176
s off
f 47/65/177 31/43/178 91/147/179 93/149/180
f 41/59/181 48/66/182 95/151/183 94/150/184
s 5
f 48/66/185 40/58/173 92/148/176 95/151/186
s off
f 30/23/187 49/67/188 97/153/189 96/152/190
f 49/67/191 41/59/192 94/150/193 97/153/194
f 1/17/195 30/23/196 96/152/197 51/154/198
s 6
f 42/60/199 50/68/200 99/156/201 98/155/202
s off
f 50/68/203 1/17/204 51/154/205 99/156/206
s 6
f 43/61/207 42/60/199 98/155/202 100/157/208
s off
f 34/51/209 43/61/210 100/157/211 81/158/212
